<?xml version="1.0" encoding="UTF-8"?>
<svg id="Layer_1" data-name="Layer 1" xmlns="http://www.w3.org/2000/svg" viewBox="0 0 380.5 436">
  <defs>
    <style>
      .cls-1 {
        fill: #000;
      }

      .cls-1, .cls-2, .cls-3 {
        stroke-width: 0px;
      }

      .cls-4 {
        fill: #bcbec0;
        stroke: #231f20;
        stroke-miterlimit: 10;
      }

      .cls-2 {
        fill: #231f20;
      }

      .cls-3 {
        fill: #fff;
      }
    </style>
  </defs>
  <rect class="cls-4" x=".5" y="142.4" width="379.5" height="151.5"/>
  <g>
    <path class="cls-3" d="M342.9,218.9c.9-25.3,14.9-28.1,11.4-49.9-.9-5.4-3.1-6.4-3-.6.1,12.3-5.3,20.8-10.7,23.4,0,0-1.6.9-2.9.9h0c-.4,0-.7-.1-.9-.3-.9-.9,3.5,0,3.2-3.3-.3-3.7-1.6-6.4-3.8-8.2-1.8-1.5-5.4-2.5-8,0-2.8,2.8-1.9,8.5,1.5,10.9.8.5,2.1,3.9-1.6,8.3,0,0,0,0,0,0-10.3,11-7,30.3-7,30.3v.3c.3,3.6,1.8,3.2,2.4.6.5-2.1.2-4.9.7-7.3.9-4.4,1-.6,1-.6,0,2.4.1,5.5.3,8.9.7,12.9,8.6,26.7,10.6,31.4,1.6,3.6,5.1,5.5,3.2-.4-2.6-7.7-4.6-12.4-5.2-16.1-.6-3.4,1.7-5.5,3.3-.2,2.5,8.2,7.1,14.5,9.3,19.2,1.3,2.8,4.9,6.7,3.4-.2-2.3-10.8-8.3-18.6-7.3-46.9Z"/>
    <path class="cls-3" d="M46.4,214.2v-5.3h-13.4v-24.4h-6.6v26.2c0,2.2,1.4,3.5,3.7,3.5h16.2ZM55.8,192.4h-5.4v21.9h5.4v-21.9ZM56.2,186.5c0-1.8-1.2-2.9-3.1-2.9s-3.2,1.2-3.2,2.9,1.2,3,3.2,3,3.1-1.2,3.1-3M73.9,209.5c-1.4.4-2.7.6-3.7.6-2.2,0-3-1.4-3-3.3v-10h6.7v-4.2h-6.7v-5.7l-5.4,1v4.7h-3.1v4.2h3.1v9.6c0,5.3,2.4,8.1,7.4,8.1s3.2-.3,5.3-.8l-.7-4.1ZM77.2,203.4c0,7.4,4.3,11.1,10.9,11.1s4.3-.4,7.1-1.3l2.1-.7-.7-4.1-2.1.7c-2.4.7-4.1,1-5.9,1-3.3,0-5.6-1.6-5.9-4.9h12.6c1.6,0,2.3-.8,2.3-2.3,0-7.3-3.9-10.7-10-10.7s-10.3,3.5-10.3,11.3M92.2,201.4h-9.6c.2-3.3,2-5.3,4.8-5.3s4.8,2.4,4.8,5.3M113.6,192.2c-4.3,0-6.7.2-9.6,1-1.8.5-2.8,1.5-2.8,3.5v17.5h5.4v-16.7c2-.6,4.2-.7,7-.7v-4.5ZM137.5,211.2l-2.4-1.5v-10.1c0-5.5-3.6-7.5-8.5-7.5s-5.1.5-7.9,1.4l-2,.6.7,4.3,2.2-.7c2.4-.7,4.7-1.2,6.5-1.2s3.9.8,3.9,3.3v1.5h-3.7c-5.5,0-10.4,1.1-10.4,6.8s2.9,6.3,7.7,6.3,3.8-.4,5.6-.8l1.3-.3c1.2-.3,2.2-.2,3.2.3l1.9,1.1,2-3.6ZM129.8,209.5l-1.7.4c-1.4.4-2.8.6-3.7.6-2.1,0-3.3-.8-3.3-2.6s1.5-2.9,4-2.9h4.7v4.5ZM152.9,192.2c-4.3,0-6.7.2-9.6,1-1.8.5-2.8,1.5-2.8,3.5v17.5h5.4v-16.7c2-.6,4.2-.7,7-.7v-4.5ZM155.1,203.4c0,7.4,4.3,11.1,10.9,11.1s4.3-.4,7.1-1.3l2.1-.7-.7-4.1-2.1.7c-2.4.7-4.1,1-5.9,1-3.3,0-5.6-1.6-5.9-4.9h12.6c1.6,0,2.3-.8,2.3-2.3,0-7.3-3.9-10.7-10-10.7s-10.3,3.5-10.3,11.3M170.1,201.4h-9.6c.2-3.3,2-5.3,4.8-5.3s4.8,2.4,4.8,5.3M203.7,214.2c6.3,0,9.6-2.9,9.6-7.8s-1-4.1-2.6-5.8l-1.5-1.5,1.2-1.6c1.2-1.5,1.9-3.3,1.9-5.3,0-5.1-3.2-7.6-8.7-7.6h-10.2c-2.4,0-3.7,1.3-3.7,3.5v22.7c0,2.2,1.4,3.5,3.7,3.5h10.4ZM206.1,192.5c0,1.1-.4,2.1-1,2.9l-1.2,1.6h-8.1v-7.9h6.6c2.6,0,3.6,1.4,3.6,3.3M204.1,201.6l1.6,1.6c.8.9,1.3,1.8,1.3,3,0,2-1.4,3.4-4,3.4h-7v-7.9h8.2ZM238,203.3c0-7.2-4.1-11.2-10.6-11.2s-10.8,4-10.8,11.2,4,11.2,10.6,11.2,10.8-4,10.8-11.2M232.4,203.3c0,4.6-1.8,7.1-5.1,7.1s-5.2-2.4-5.2-7.1,1.7-7.1,5.1-7.1,5.2,2.5,5.2,7.1M262.6,203.3c0-7.2-4.1-11.2-10.6-11.2s-10.8,4-10.8,11.2,4,11.2,10.6,11.2,10.8-4,10.8-11.2M257.1,203.3c0,4.6-1.8,7.1-5.1,7.1s-5.2-2.4-5.2-7.1,1.7-7.1,5.1-7.1,5.2,2.5,5.2,7.1M286.7,214.2l-6.7-14.5,6.5-7.4h-6.6l-8,9.4v-18.3l-5.4,1v29.9h5.4v-3.3c0-2.4.9-3.4,2.1-4.7l1.8-1.9,4.7,10h6.3ZM297.1,201c-2-.3-2.7-1-2.7-2.3s1.5-2.4,3.2-2.4,4.6.6,6.9,1.4l2.1.7.8-4.4-2-.6c-2.8-.8-5-1.2-7.8-1.2-4.7,0-8.5,2.2-8.5,6.8s2.2,5.5,6.2,6.1l4,.7c1.9.3,2.7,1,2.7,2.2,0,1.7-1.5,2.4-3.2,2.4s-4.7-.6-6.9-1.3l-2.1-.7-.8,4.3,2,.6c2.8.8,5,1.2,7.8,1.2,4.7,0,8.4-2.3,8.4-6.9s-2.2-5.4-6.2-6.1l-4-.6Z"/>
    <path class="cls-3" d="M26.8,238.3h2v-11.5h-2v11.5ZM43.7,238.3h2v-8.2l6.3,8.2h1.7v-11.5h-2v7.9l-6.2-7.9h-1.9v11.5ZM71.4,238.3h2v-9.6h3.6v-1.9h-9.3v1.9h3.6v9.6ZM91,238.3h8.6v-1.8h-6.6v-3.1h5.8v-1.8h-5.8v-3h6.5v-1.8h-8.5v11.5ZM113.8,238.3h2v-4h2.5l2.8,4h2.4l-3.1-4.3c1.6-.5,2.7-1.6,2.7-3.5h0c0-1-.3-1.9-1-2.5-.7-.7-1.9-1.2-3.3-1.2h-5.1v11.5ZM115.8,232.5v-3.9h2.9c1.5,0,2.4.7,2.4,1.9h0c0,1.2-.9,2-2.4,2h-3ZM137.5,238.3h2v-8.2l6.3,8.2h1.7v-11.5h-2v7.9l-6.2-7.9h-1.9v11.5ZM161.3,238.3h2.1l1.2-2.8h5.4l1.2,2.8h2.1l-5.1-11.6h-1.9l-5.1,11.6ZM165.3,233.7l2-4.6,2,4.6h-4ZM188.5,238.3h2v-9.6h3.6v-1.9h-9.3v1.9h3.6v9.6ZM208.2,238.3h2v-11.5h-2v11.5ZM230.6,238.5c3.5,0,6-2.7,6-5.9h0c0-3.3-2.5-5.9-6-5.9s-6,2.7-6,5.9h0c0,3.3,2.5,5.9,6,5.9M230.7,236.6c-2.3,0-3.9-1.8-3.9-4.1h0c0-2.3,1.6-4.1,3.9-4.1s3.9,1.9,3.9,4.1h0c0,2.3-1.6,4.1-3.9,4.1M250.9,238.3h2v-8.2l6.3,8.2h1.7v-11.5h-2v7.9l-6.2-7.9h-1.9v11.5ZM274.7,238.3h2.1l1.2-2.8h5.4l1.2,2.8h2.1l-5.1-11.6h-1.9l-5.1,11.6ZM278.7,233.7l2-4.6,2,4.6h-4ZM300.5,238.3h8.1v-1.8h-6v-9.7h-2v11.5Z"/>
    <path class="cls-3" d="M32.3,263.8c2.5,0,3.8-1.1,3.8-3.1s-.4-1.6-1-2.3l-.6-.6.5-.6c.5-.6.7-1.3.7-2.1,0-2-1.3-3-3.5-3h-4.1c-.9,0-1.5.5-1.5,1.4v9c0,.9.6,1.4,1.5,1.4h4.1ZM33.3,255.2c0,.4-.1.8-.4,1.2l-.5.6h-3.2v-3.1h2.6c1,0,1.4.5,1.4,1.3M32.5,258.8l.6.6c.3.3.5.7.5,1.2,0,.8-.5,1.3-1.6,1.3h-2.8v-3.1h3.2ZM49.5,263.8l-2.2-5,.7-.9c.6-.7,1-1.5,1-2.4,0-2.2-1.4-3.4-3.6-3.4h-4c-.9,0-1.5.6-1.5,1.4v10.4h2.6v-4.3h2.6l1.8,4.3h2.7ZM46.5,255.5c0,.6-.3,1-.6,1.5l-.5.6h-3v-3.7h2.5c1.1,0,1.6.6,1.6,1.6M63,263.8l-3.6-10.7c-.3-.8-.9-1.2-1.8-1.2s-1.6.4-1.8,1.2l-3.8,10.7h2.6l.7-2.1h4.4l.7,2.1h2.6ZM59.2,259.7h-3.4l1.7-5.2,1.7,5.2ZM69.8,256.7c-.9-.2-1.3-.6-1.3-1.3s.7-1.4,1.7-1.4,2.2.3,3.3.7l1,.4.4-2.2-1-.3c-1.3-.4-2.4-.6-3.8-.6-2.3,0-4.1,1.1-4.1,3.5s1.1,2.8,3.1,3.2l2.1.4c.9.2,1.3.6,1.3,1.3s-.8,1.4-1.7,1.4-2.3-.3-3.4-.7l-1-.3-.4,2.1,1,.3c1.3.4,2.5.6,3.8.6,2.3,0,4.1-1.2,4.1-3.5s-1.1-2.8-3.1-3.2l-2-.4ZM81.1,252h-2.6v11.7h2.6v-11.7ZM93,263.8v-2.1h-5.3v-9.6h-2.6v10.4c0,.9.6,1.4,1.5,1.4h6.4ZM205,259.6c0,1.5-.8,2.3-2.3,2.3s-2.3-.8-2.3-2.3v-7.5h-2.6v7.4c0,2.8,1.7,4.5,4.9,4.5s4.9-1.7,4.9-4.5v-7.4h-2.6v7.5ZM215.1,256.7c-.9-.2-1.3-.6-1.3-1.3s.7-1.4,1.7-1.4,2.2.3,3.3.7l1,.4.4-2.2-1-.3c-1.3-.4-2.4-.6-3.8-.6-2.3,0-4.1,1.1-4.1,3.5s1.1,2.8,3.1,3.2l2.1.4c.9.2,1.3.6,1.3,1.3s-.8,1.4-1.7,1.4-2.3-.3-3.4-.7l-1-.3-.4,2.1,1,.3c1.3.4,2.5.6,3.8.6,2.3,0,4.1-1.2,4.1-3.5s-1.1-2.8-3.1-3.2l-2-.4ZM234,263.8l-3.6-10.7c-.3-.8-.9-1.2-1.8-1.2s-1.6.4-1.8,1.2l-3.8,10.7h2.6l.7-2.1h4.4l.7,2.1h2.6ZM230.2,259.7h-3.4l1.7-5.2,1.7,5.2ZM254.6,252h-2.6v8.2c0,1-.4,1.5-1.3,1.5s-1-.1-1.7-.3l-.3,2c.9.3,1.7.4,2.4.4,2.1,0,3.4-1.2,3.4-3.3v-8.4ZM268.7,263.8l-3.6-10.7c-.3-.8-.9-1.2-1.8-1.2s-1.6.4-1.8,1.2l-3.8,10.7h2.6l.7-2.1h4.4l.7,2.1h2.6ZM264.9,259.7h-3.4l1.7-5.2,1.7,5.2ZM280.7,255.8c0-2.3-1.5-3.8-3.8-3.8h-3.5c-.9,0-1.5.5-1.5,1.4v10.3h2.5v-4.2h2.3c2.4,0,4-1.4,4-3.8M278.4,255.8c0,1.2-.7,1.9-1.8,1.9h-2.1v-3.7h1.8c1.3,0,2.2.4,2.2,1.9M294.5,263.8l-3.6-10.7c-.3-.8-.9-1.2-1.8-1.2s-1.6.4-1.8,1.2l-3.8,10.7h2.6l.7-2.1h4.4l.7,2.1h2.6ZM290.7,259.7h-3.4l1.7-5.2,1.7,5.2ZM290.3,251.4c.9,0,1.8-.5,2.3-1.8l-1.2-.7c-.3.7-.6,1-1,1s-.4,0-.6-.2l-.6-.4c-.4-.3-.8-.4-1.3-.4-.9,0-1.8.5-2.3,1.9l1.1.7c.3-.8.7-1,1-1s.4,0,.6.2l.6.4c.4.3.8.4,1.3.4M308.3,257.9c0-3.8-2.3-6-5.6-6s-5.7,2.2-5.7,6,2.3,6,5.6,6,5.7-2.1,5.7-6M305.7,257.9c0,2.6-1.1,4.1-3,4.1s-3.1-1.5-3.1-4.1,1.1-4.1,3-4.1,3.1,1.5,3.1,4.1"/>
    <path class="cls-3" d="M102.4,256.4c0,.7-.6,1.3-1.3,1.3s-1.3-.6-1.3-1.3.6-1.3,1.3-1.3,1.3.6,1.3,1.3"/>
    <path class="cls-3" d="M191.2,256.4c0,.7-.6,1.3-1.3,1.3s-1.3-.6-1.3-1.3.6-1.3,1.3-1.3,1.3.6,1.3,1.3"/>
    <path class="cls-3" d="M243,256.4c0,.7-.6,1.3-1.3,1.3s-1.3-.6-1.3-1.3.6-1.3,1.3-1.3,1.3.6,1.3,1.3"/>
    <path class="cls-3" d="M117.7,263.8h-6.9c-.5,0-.8-.1-1.1-.4-.3-.2-.4-.6-.4-1v-9c0-.4.1-.8.4-1,.3-.2.6-.4,1.1-.4h6.8v2h-5.7v2.9h5v1.9h-5v3.1h5.8v1.9Z"/>
    <path class="cls-3" d="M129,259.6v-7.6h2.6v7.5c0,1.4-.4,2.5-1.3,3.3-.9.8-2.1,1.2-3.6,1.2s-2.8-.4-3.6-1.2c-.8-.8-1.3-1.9-1.3-3.3v-7.5h2.6v7.6c0,1.5.8,2.3,2.3,2.3s2.3-.8,2.3-2.3"/>
    <path class="cls-3" d="M141.4,255.4c0-1.1-.5-1.6-1.6-1.6h-2.6v3.7h3.1l.5-.6c.4-.5.6-1,.6-1.5M144.4,263.8h-2.7l-1.9-4.4h-2.6v4.4h-2.6v-10.4c0-.4.1-.7.4-1,.3-.3.6-.4,1.1-.4h4.1c1.2,0,2.1.3,2.7.9.6.6,1,1.4,1,2.5s-.3,1.7-1,2.4l-.7.9,2.3,5.1Z"/>
    <path class="cls-3" d="M155.3,257.9c0-1.3-.3-2.3-.8-3-.6-.7-1.3-1.1-2.3-1.1s-1.7.4-2.3,1.1c-.5.7-.8,1.7-.8,3s.3,2.3.8,3c.5.7,1.3,1.1,2.3,1.1s1.7-.4,2.3-1.1c.5-.7.8-1.7.8-3.1M157.9,257.9c0,1.9-.5,3.4-1.6,4.4-1,1-2.4,1.6-4.2,1.6s-3.1-.5-4.2-1.6c-1-1.1-1.5-2.5-1.5-4.4s.5-3.4,1.6-4.4c1.1-1.1,2.4-1.6,4.2-1.6s3.1.5,4.1,1.6c1,1.1,1.5,2.5,1.5,4.4"/>
    <path class="cls-3" d="M167.3,255.8c0-1.3-.7-1.9-2.2-1.9h-1.8v3.7h2.1c.6,0,1-.2,1.4-.5.3-.3.5-.8.5-1.4M169.6,255.8c0,1.2-.4,2.1-1.1,2.8-.7.7-1.7,1-2.9,1h-2.4v4.2h-2.5v-10.4c0-.4.1-.8.4-1,.3-.2.6-.4,1.1-.4h3.6c1.2,0,2.1.3,2.8,1,.7.7,1.1,1.6,1.1,2.8"/>
    <path class="cls-3" d="M177.7,259.7l-1.7-5.3-1.7,5.3h3.4ZM181.6,263.8h-2.4l-.7-2.2h-4.6l-.7,2.2h-2.6l3.6-10.8c.3-.8.9-1.1,1.9-1.1s1.6.4,1.9,1.2l3.7,10.8Z"/>
  </g>
  <g>
    <path class="cls-1" d="M342.9,54.5c.9-25.3,14.9-28.1,11.4-49.9-.9-5.4-3.1-6.4-3-.6.1,12.3-5.3,20.8-10.7,23.4,0,0-1.6.9-2.9.9h0c-.4,0-.7-.1-.9-.3-.9-.9,3.5,0,3.2-3.3-.3-3.7-1.6-6.4-3.8-8.2-1.8-1.5-5.4-2.5-8,0-2.8,2.8-1.9,8.5,1.5,10.9.8.5,2.1,3.9-1.6,8.3,0,0,0,0,0,0-10.3,11-7,30.3-7,30.3v.3c.3,3.6,1.8,3.2,2.4.6.5-2.1.2-4.9.7-7.3.9-4.4,1-.6,1-.6,0,2.4.1,5.5.3,8.9.7,12.9,8.6,26.7,10.6,31.4,1.6,3.6,5.1,5.5,3.2-.4-2.6-7.7-4.6-12.4-5.2-16.1-.6-3.4,1.7-5.5,3.3-.2,2.5,8.2,7.1,14.5,9.3,19.2,1.3,2.8,4.9,6.7,3.4-.2-2.3-10.8-8.3-18.6-7.3-46.9Z"/>
    <path class="cls-1" d="M46.4,49.8v-5.3h-13.4v-24.4h-6.6v26.2c0,2.2,1.4,3.5,3.7,3.5h16.2ZM55.8,27.9h-5.4v21.9h5.4v-21.9ZM56.2,22.1c0-1.8-1.2-2.9-3.1-2.9s-3.2,1.2-3.2,2.9,1.2,3,3.2,3,3.1-1.2,3.1-3M73.9,45c-1.4.4-2.7.6-3.7.6-2.2,0-3-1.4-3-3.3v-10h6.7v-4.2h-6.7v-5.7l-5.4,1v4.7h-3.1v4.2h3.1v9.6c0,5.3,2.4,8.1,7.4,8.1s3.2-.3,5.3-.8l-.7-4.1ZM77.2,38.9c0,7.4,4.3,11.1,10.9,11.1s4.3-.4,7.1-1.3l2.1-.7-.7-4.1-2.1.7c-2.4.7-4.1,1-5.9,1-3.3,0-5.6-1.6-5.9-4.9h12.6c1.6,0,2.3-.8,2.3-2.3,0-7.3-3.9-10.7-10-10.7s-10.3,3.5-10.3,11.3M92.2,36.9h-9.6c.2-3.3,2-5.3,4.8-5.3s4.8,2.4,4.8,5.3M113.6,27.8c-4.3,0-6.7.2-9.6,1-1.8.5-2.8,1.5-2.8,3.5v17.5h5.4v-16.7c2-.6,4.2-.7,7-.7v-4.5ZM137.5,46.7l-2.4-1.5v-10.1c0-5.5-3.6-7.5-8.5-7.5s-5.1.5-7.9,1.4l-2,.6.7,4.3,2.2-.7c2.4-.7,4.7-1.2,6.5-1.2s3.9.8,3.9,3.3v1.5h-3.7c-5.5,0-10.4,1.1-10.4,6.8s2.9,6.3,7.7,6.3,3.8-.4,5.6-.8l1.3-.3c1.2-.3,2.2-.2,3.2.3l1.9,1.1,2-3.6ZM129.8,45.1l-1.7.4c-1.4.4-2.8.6-3.7.6-2.1,0-3.3-.8-3.3-2.6s1.5-2.9,4-2.9h4.7v4.5ZM152.9,27.8c-4.3,0-6.7.2-9.6,1-1.8.5-2.8,1.5-2.8,3.5v17.5h5.4v-16.7c2-.6,4.2-.7,7-.7v-4.5ZM155.1,38.9c0,7.4,4.3,11.1,10.9,11.1s4.3-.4,7.1-1.3l2.1-.7-.7-4.1-2.1.7c-2.4.7-4.1,1-5.9,1-3.3,0-5.6-1.6-5.9-4.9h12.6c1.6,0,2.3-.8,2.3-2.3,0-7.3-3.9-10.7-10-10.7s-10.3,3.5-10.3,11.3M170.1,36.9h-9.6c.2-3.3,2-5.3,4.8-5.3s4.8,2.4,4.8,5.3M203.7,49.8c6.3,0,9.6-2.9,9.6-7.8s-1-4.1-2.6-5.8l-1.5-1.5,1.2-1.6c1.2-1.5,1.9-3.3,1.9-5.3,0-5.1-3.2-7.6-8.7-7.6h-10.2c-2.4,0-3.7,1.3-3.7,3.5v22.7c0,2.2,1.4,3.5,3.7,3.5h10.4ZM206.1,28c0,1.1-.4,2.1-1,2.9l-1.2,1.6h-8.1v-7.9h6.6c2.6,0,3.6,1.4,3.6,3.3M204.1,37.2l1.6,1.6c.8.9,1.3,1.8,1.3,3,0,2-1.4,3.4-4,3.4h-7v-7.9h8.2ZM238,38.9c0-7.2-4.1-11.2-10.6-11.2s-10.8,4-10.8,11.2,4,11.2,10.6,11.2,10.8-4,10.8-11.2M232.4,38.9c0,4.6-1.8,7.1-5.1,7.1s-5.2-2.4-5.2-7.1,1.7-7.1,5.1-7.1,5.2,2.5,5.2,7.1M262.6,38.9c0-7.2-4.1-11.2-10.6-11.2s-10.8,4-10.8,11.2,4,11.2,10.6,11.2,10.8-4,10.8-11.2M257.1,38.9c0,4.6-1.8,7.1-5.1,7.1s-5.2-2.4-5.2-7.1,1.7-7.1,5.1-7.1,5.2,2.5,5.2,7.1M286.7,49.8l-6.7-14.5,6.5-7.4h-6.6l-8,9.4v-18.3l-5.4,1v29.9h5.4v-3.3c0-2.4.9-3.4,2.1-4.7l1.8-1.9,4.7,10h6.3ZM297.1,36.5c-2-.3-2.7-1-2.7-2.3s1.5-2.4,3.2-2.4,4.6.6,6.9,1.4l2.1.7.8-4.4-2-.6c-2.8-.8-5-1.2-7.8-1.2-4.7,0-8.5,2.2-8.5,6.8s2.2,5.5,6.2,6.1l4,.7c1.9.3,2.7,1,2.7,2.2,0,1.7-1.5,2.4-3.2,2.4s-4.7-.6-6.9-1.3l-2.1-.7-.8,4.3,2,.6c2.8.8,5,1.2,7.8,1.2,4.7,0,8.4-2.3,8.4-6.9s-2.2-5.4-6.2-6.1l-4-.6Z"/>
    <path class="cls-1" d="M26.8,73.8h2v-11.5h-2v11.5ZM43.7,73.8h2v-8.2l6.3,8.2h1.7v-11.5h-2v7.9l-6.2-7.9h-1.9v11.5ZM71.4,73.8h2v-9.6h3.6v-1.9h-9.3v1.9h3.6v9.6ZM91,73.8h8.6v-1.8h-6.6v-3.1h5.8v-1.8h-5.8v-3h6.5v-1.8h-8.5v11.5ZM113.8,73.8h2v-4h2.5l2.8,4h2.4l-3.1-4.3c1.6-.5,2.7-1.6,2.7-3.5h0c0-1-.3-1.9-1-2.5-.7-.7-1.9-1.2-3.3-1.2h-5.1v11.5ZM115.8,68v-3.9h2.9c1.5,0,2.4.7,2.4,1.9h0c0,1.2-.9,2-2.4,2h-3ZM137.5,73.8h2v-8.2l6.3,8.2h1.7v-11.5h-2v7.9l-6.2-7.9h-1.9v11.5ZM161.3,73.8h2.1l1.2-2.8h5.4l1.2,2.8h2.1l-5.1-11.6h-1.9l-5.1,11.6ZM165.3,69.2l2-4.6,2,4.6h-4ZM188.5,73.8h2v-9.6h3.6v-1.9h-9.3v1.9h3.6v9.6ZM208.2,73.8h2v-11.5h-2v11.5ZM230.6,74c3.5,0,6-2.7,6-5.9h0c0-3.3-2.5-5.9-6-5.9s-6,2.7-6,5.9h0c0,3.3,2.5,5.9,6,5.9M230.7,72.1c-2.3,0-3.9-1.8-3.9-4.1h0c0-2.3,1.6-4.1,3.9-4.1s3.9,1.9,3.9,4.1h0c0,2.3-1.6,4.1-3.9,4.1M250.9,73.8h2v-8.2l6.3,8.2h1.7v-11.5h-2v7.9l-6.2-7.9h-1.9v11.5ZM274.7,73.8h2.1l1.2-2.8h5.4l1.2,2.8h2.1l-5.1-11.6h-1.9l-5.1,11.6ZM278.7,69.2l2-4.6,2,4.6h-4ZM300.5,73.8h8.1v-1.8h-6v-9.7h-2v11.5Z"/>
    <path class="cls-1" d="M32.3,99.3c2.5,0,3.8-1.1,3.8-3.1s-.4-1.6-1-2.3l-.6-.6.5-.6c.5-.6.7-1.3.7-2.1,0-2-1.3-3-3.5-3h-4.1c-.9,0-1.5.5-1.5,1.4v9c0,.9.6,1.4,1.5,1.4h4.1ZM33.3,90.7c0,.4-.1.8-.4,1.2l-.5.6h-3.2v-3.1h2.6c1,0,1.4.5,1.4,1.3M32.5,94.3l.6.6c.3.3.5.7.5,1.2,0,.8-.5,1.3-1.6,1.3h-2.8v-3.1h3.2ZM49.5,99.3l-2.2-5,.7-.9c.6-.7,1-1.5,1-2.4,0-2.2-1.4-3.4-3.6-3.4h-4c-.9,0-1.5.6-1.5,1.4v10.4h2.6v-4.3h2.6l1.8,4.3h2.7ZM46.5,91c0,.6-.3,1-.6,1.5l-.5.6h-3v-3.7h2.5c1.1,0,1.6.6,1.6,1.6M63,99.3l-3.6-10.7c-.3-.8-.9-1.2-1.8-1.2s-1.6.4-1.8,1.2l-3.8,10.7h2.6l.7-2.1h4.4l.7,2.1h2.6ZM59.2,95.3h-3.4l1.7-5.2,1.7,5.2ZM69.8,92.3c-.9-.2-1.3-.6-1.3-1.3s.7-1.4,1.7-1.4,2.2.3,3.3.7l1,.4.4-2.2-1-.3c-1.3-.4-2.4-.6-3.8-.6-2.3,0-4.1,1.1-4.1,3.5s1.1,2.8,3.1,3.2l2.1.4c.9.2,1.3.6,1.3,1.3s-.8,1.4-1.7,1.4-2.3-.3-3.4-.7l-1-.3-.4,2.1,1,.3c1.3.4,2.5.6,3.8.6,2.3,0,4.1-1.2,4.1-3.5s-1.1-2.8-3.1-3.2l-2-.4ZM81.1,87.6h-2.6v11.7h2.6v-11.7ZM93,99.3v-2.1h-5.3v-9.6h-2.6v10.4c0,.9.6,1.4,1.5,1.4h6.4ZM205,95.1c0,1.5-.8,2.3-2.3,2.3s-2.3-.8-2.3-2.3v-7.5h-2.6v7.4c0,2.8,1.7,4.5,4.9,4.5s4.9-1.7,4.9-4.5v-7.4h-2.6v7.5ZM215.1,92.3c-.9-.2-1.3-.6-1.3-1.3s.7-1.4,1.7-1.4,2.2.3,3.3.7l1,.4.4-2.2-1-.3c-1.3-.4-2.4-.6-3.8-.6-2.3,0-4.1,1.1-4.1,3.5s1.1,2.8,3.1,3.2l2.1.4c.9.2,1.3.6,1.3,1.3s-.8,1.4-1.7,1.4-2.3-.3-3.4-.7l-1-.3-.4,2.1,1,.3c1.3.4,2.5.6,3.8.6,2.3,0,4.1-1.2,4.1-3.5s-1.1-2.8-3.1-3.2l-2-.4ZM234,99.3l-3.6-10.7c-.3-.8-.9-1.2-1.8-1.2s-1.6.4-1.8,1.2l-3.8,10.7h2.6l.7-2.1h4.4l.7,2.1h2.6ZM230.2,95.3h-3.4l1.7-5.2,1.7,5.2ZM254.6,87.6h-2.6v8.2c0,1-.4,1.5-1.3,1.5s-1-.1-1.7-.3l-.3,2c.9.3,1.7.4,2.4.4,2.1,0,3.4-1.2,3.4-3.3v-8.4ZM268.7,99.3l-3.6-10.7c-.3-.8-.9-1.2-1.8-1.2s-1.6.4-1.8,1.2l-3.8,10.7h2.6l.7-2.1h4.4l.7,2.1h2.6ZM264.9,95.3h-3.4l1.7-5.2,1.7,5.2ZM280.7,91.3c0-2.3-1.5-3.8-3.8-3.8h-3.5c-.9,0-1.5.5-1.5,1.4v10.3h2.5v-4.2h2.3c2.4,0,4-1.4,4-3.8M278.4,91.3c0,1.2-.7,1.9-1.8,1.9h-2.1v-3.7h1.8c1.3,0,2.2.4,2.2,1.9M294.5,99.3l-3.6-10.7c-.3-.8-.9-1.2-1.8-1.2s-1.6.4-1.8,1.2l-3.8,10.7h2.6l.7-2.1h4.4l.7,2.1h2.6ZM290.7,95.3h-3.4l1.7-5.2,1.7,5.2ZM290.3,87c.9,0,1.8-.5,2.3-1.8l-1.2-.7c-.3.7-.6,1-1,1s-.4,0-.6-.2l-.6-.4c-.4-.3-.8-.4-1.3-.4-.9,0-1.8.5-2.3,1.9l1.1.7c.3-.8.7-1,1-1s.4,0,.6.2l.6.4c.4.3.8.4,1.3.4M308.3,93.5c0-3.8-2.3-6-5.6-6s-5.7,2.2-5.7,6,2.3,6,5.6,6,5.7-2.1,5.7-6M305.7,93.5c0,2.6-1.1,4.1-3,4.1s-3.1-1.5-3.1-4.1,1.1-4.1,3-4.1,3.1,1.5,3.1,4.1"/>
    <path class="cls-1" d="M102.4,91.9c0,.7-.6,1.3-1.3,1.3s-1.3-.6-1.3-1.3.6-1.3,1.3-1.3,1.3.6,1.3,1.3"/>
    <path class="cls-1" d="M191.2,91.9c0,.7-.6,1.3-1.3,1.3s-1.3-.6-1.3-1.3.6-1.3,1.3-1.3,1.3.6,1.3,1.3"/>
    <path class="cls-1" d="M243,91.9c0,.7-.6,1.3-1.3,1.3s-1.3-.6-1.3-1.3.6-1.3,1.3-1.3,1.3.6,1.3,1.3"/>
    <path class="cls-1" d="M117.7,99.3h-6.9c-.5,0-.8-.1-1.1-.4-.3-.2-.4-.6-.4-1v-9c0-.4.1-.8.4-1,.3-.2.6-.4,1.1-.4h6.8v2h-5.7v2.9h5v1.9h-5v3.1h5.8v1.9Z"/>
    <path class="cls-1" d="M129,95.1v-7.6h2.6v7.5c0,1.4-.4,2.5-1.3,3.3-.9.8-2.1,1.2-3.6,1.2s-2.8-.4-3.6-1.2c-.8-.8-1.3-1.9-1.3-3.3v-7.5h2.6v7.6c0,1.5.8,2.3,2.3,2.3s2.3-.8,2.3-2.3"/>
    <path class="cls-1" d="M141.4,91c0-1.1-.5-1.6-1.6-1.6h-2.6v3.7h3.1l.5-.6c.4-.5.6-1,.6-1.5M144.4,99.3h-2.7l-1.9-4.4h-2.6v4.4h-2.6v-10.4c0-.4.1-.7.4-1,.3-.3.6-.4,1.1-.4h4.1c1.2,0,2.1.3,2.7.9.6.6,1,1.4,1,2.5s-.3,1.7-1,2.4l-.7.9,2.3,5.1Z"/>
    <path class="cls-1" d="M155.3,93.5c0-1.3-.3-2.3-.8-3-.6-.7-1.3-1.1-2.3-1.1s-1.7.4-2.3,1.1c-.5.7-.8,1.7-.8,3s.3,2.3.8,3c.5.7,1.3,1.1,2.3,1.1s1.7-.4,2.3-1.1c.5-.7.8-1.7.8-3.1M157.9,93.5c0,1.9-.5,3.4-1.6,4.4-1,1-2.4,1.6-4.2,1.6s-3.1-.5-4.2-1.6c-1-1.1-1.5-2.5-1.5-4.4s.5-3.4,1.6-4.4c1.1-1.1,2.4-1.6,4.2-1.6s3.1.5,4.1,1.6c1,1.1,1.5,2.5,1.5,4.4"/>
    <path class="cls-1" d="M167.3,91.3c0-1.3-.7-1.9-2.2-1.9h-1.8v3.7h2.1c.6,0,1-.2,1.4-.5.3-.3.5-.8.5-1.4M169.6,91.3c0,1.2-.4,2.1-1.1,2.8-.7.7-1.7,1-2.9,1h-2.4v4.2h-2.5v-10.4c0-.4.1-.8.4-1,.3-.2.6-.4,1.1-.4h3.6c1.2,0,2.1.3,2.8,1,.7.7,1.1,1.6,1.1,2.8"/>
    <path class="cls-1" d="M177.7,95.3l-1.7-5.3-1.7,5.3h3.4ZM181.6,99.3h-2.4l-.7-2.2h-4.6l-.7,2.2h-2.6l3.6-10.8c.3-.8.9-1.1,1.9-1.1s1.6.4,1.9,1.2l3.7,10.8Z"/>
  </g>
  <g>
    <path class="cls-1" d="M343.1,382.4c.9-26.7,15.7-29.7,12-52.7-.9-5.7-3.2-6.7-3.2-.7.1,13-5.6,21.9-11.3,24.7,0,0-1.7,1-3,1h0c-.4,0-.7-.1-1-.4-.9-1,3.7,0,3.4-3.5-.3-3.9-1.7-6.8-4-8.7-1.9-1.6-5.7-2.6-8.4,0-3,2.9-2,8.9,1.6,11.5.8.6,2.3,4.1-1.7,8.8,0,0,0,0,0,0-10.8,11.7-7.4,31.9-7.4,31.9v.3c.3,3.8,1.9,3.3,2.5.6.5-2.3.2-5.2.7-7.7.9-4.6,1-.6,1-.6,0,2.5.1,5.8.3,9.4.7,13.6,9,28.2,11.2,33.1,1.7,3.8,5.4,5.8,3.4-.4-2.7-8.1-4.8-13.1-5.5-17-.6-3.6,1.8-5.8,3.5-.2,2.6,8.6,7.5,15.3,9.8,20.3,1.4,3,5.1,7,3.6-.3-2.4-11.4-8.8-19.6-7.7-49.5Z"/>
    <path class="cls-1" d="M46.4,358.1v-5.3h-13.4v-24.4h-6.6v26.2c0,2.2,1.4,3.5,3.7,3.5h16.2ZM55.8,336.2h-5.4v21.9h5.4v-21.9ZM56.2,330.4c0-1.8-1.2-2.9-3.1-2.9s-3.2,1.2-3.2,2.9,1.2,3,3.2,3,3.1-1.2,3.1-3M73.9,353.4c-1.4.4-2.7.6-3.7.6-2.2,0-3-1.4-3-3.3v-10h6.7v-4.2h-6.7v-5.7l-5.4,1v4.7h-3.1v4.2h3.1v9.6c0,5.3,2.4,8.1,7.4,8.1s3.2-.3,5.3-.8l-.7-4.1ZM77.2,347.3c0,7.4,4.3,11.1,10.9,11.1s4.3-.4,7.1-1.3l2.1-.7-.7-4.1-2.1.7c-2.4.7-4.1,1-5.9,1-3.3,0-5.6-1.6-5.9-4.9h12.6c1.6,0,2.3-.8,2.3-2.3,0-7.3-3.9-10.7-10-10.7s-10.3,3.5-10.3,11.3M92.2,345.3h-9.6c.2-3.3,2-5.3,4.8-5.3s4.8,2.4,4.8,5.3M113.6,336.1c-4.3,0-6.7.2-9.6,1-1.8.5-2.8,1.5-2.8,3.5v17.5h5.4v-16.7c2-.6,4.2-.7,7-.7v-4.5ZM137.5,355.1l-2.4-1.5v-10.1c0-5.5-3.6-7.5-8.5-7.5s-5.1.5-7.9,1.4l-2,.6.7,4.3,2.2-.7c2.4-.7,4.7-1.2,6.5-1.2s3.9.8,3.9,3.3v1.5h-3.7c-5.5,0-10.4,1.1-10.4,6.8s2.9,6.3,7.7,6.3,3.8-.4,5.6-.8l1.3-.3c1.2-.3,2.2-.2,3.2.3l1.9,1.1,2-3.6ZM129.8,353.4l-1.7.4c-1.4.4-2.8.6-3.7.6-2.1,0-3.3-.8-3.3-2.6s1.5-2.9,4-2.9h4.7v4.5ZM152.9,336.1c-4.3,0-6.7.2-9.6,1-1.8.5-2.8,1.5-2.8,3.5v17.5h5.4v-16.7c2-.6,4.2-.7,7-.7v-4.5ZM155.1,347.3c0,7.4,4.3,11.1,10.9,11.1s4.3-.4,7.1-1.3l2.1-.7-.7-4.1-2.1.7c-2.4.7-4.1,1-5.9,1-3.3,0-5.6-1.6-5.9-4.9h12.6c1.6,0,2.3-.8,2.3-2.3,0-7.3-3.9-10.7-10-10.7s-10.3,3.5-10.3,11.3M170.1,345.3h-9.6c.2-3.3,2-5.3,4.8-5.3s4.8,2.4,4.8,5.3M203.7,358.1c6.3,0,9.6-2.9,9.6-7.8s-1-4.1-2.6-5.8l-1.5-1.5,1.2-1.6c1.2-1.5,1.9-3.3,1.9-5.3,0-5.1-3.2-7.6-8.7-7.6h-10.2c-2.4,0-3.7,1.3-3.7,3.5v22.7c0,2.2,1.4,3.5,3.7,3.5h10.4ZM206.1,336.4c0,1.1-.4,2.1-1,2.9l-1.2,1.6h-8.1v-7.9h6.6c2.6,0,3.6,1.4,3.6,3.3M204.1,345.5l1.6,1.6c.8.9,1.3,1.8,1.3,3,0,2-1.4,3.4-4,3.4h-7v-7.9h8.2ZM238,347.2c0-7.2-4.1-11.2-10.6-11.2s-10.8,4-10.8,11.2,4,11.2,10.6,11.2,10.8-4,10.8-11.2M232.4,347.2c0,4.6-1.8,7.1-5.1,7.1s-5.2-2.4-5.2-7.1,1.7-7.1,5.1-7.1,5.2,2.5,5.2,7.1M262.6,347.2c0-7.2-4.1-11.2-10.6-11.2s-10.8,4-10.8,11.2,4,11.2,10.6,11.2,10.8-4,10.8-11.2M257.1,347.2c0,4.6-1.8,7.1-5.1,7.1s-5.2-2.4-5.2-7.1,1.7-7.1,5.1-7.1,5.2,2.5,5.2,7.1M286.7,358.1l-6.7-14.5,6.5-7.4h-6.6l-8,9.4v-18.3l-5.4,1v29.9h5.4v-3.3c0-2.4.9-3.4,2.1-4.7l1.8-1.9,4.7,10h6.3ZM297.1,344.9c-2-.3-2.7-1-2.7-2.3s1.5-2.4,3.2-2.4,4.6.6,6.9,1.4l2.1.7.8-4.4-2-.6c-2.8-.8-5-1.2-7.8-1.2-4.7,0-8.5,2.2-8.5,6.8s2.2,5.5,6.2,6.1l4,.7c1.9.3,2.7,1,2.7,2.2,0,1.7-1.5,2.4-3.2,2.4s-4.7-.6-6.9-1.3l-2.1-.7-.8,4.3,2,.6c2.8.8,5,1.2,7.8,1.2,4.7,0,8.4-2.3,8.4-6.9s-2.2-5.4-6.2-6.1l-4-.6Z"/>
    <path class="cls-1" d="M26.8,382.2h2v-11.5h-2v11.5ZM43.7,382.2h2v-8.2l6.3,8.2h1.7v-11.5h-2v7.9l-6.2-7.9h-1.9v11.5ZM71.4,382.2h2v-9.6h3.6v-1.9h-9.3v1.9h3.6v9.6ZM91,382.2h8.6v-1.8h-6.6v-3.1h5.8v-1.8h-5.8v-3h6.5v-1.8h-8.5v11.5ZM113.8,382.2h2v-4h2.5l2.8,4h2.4l-3.1-4.3c1.6-.5,2.7-1.6,2.7-3.5h0c0-1-.3-1.9-1-2.5-.7-.7-1.9-1.2-3.3-1.2h-5.1v11.5ZM115.8,376.4v-3.9h2.9c1.5,0,2.4.7,2.4,1.9h0c0,1.2-.9,2-2.4,2h-3ZM137.5,382.2h2v-8.2l6.3,8.2h1.7v-11.5h-2v7.9l-6.2-7.9h-1.9v11.5ZM161.3,382.2h2.1l1.2-2.8h5.4l1.2,2.8h2.1l-5.1-11.6h-1.9l-5.1,11.6ZM165.3,377.6l2-4.6,2,4.6h-4ZM188.5,382.2h2v-9.6h3.6v-1.9h-9.3v1.9h3.6v9.6ZM208.2,382.2h2v-11.5h-2v11.5ZM230.6,382.4c3.5,0,6-2.7,6-5.9h0c0-3.3-2.5-5.9-6-5.9s-6,2.7-6,5.9h0c0,3.3,2.5,5.9,6,5.9M230.7,380.5c-2.3,0-3.9-1.8-3.9-4.1h0c0-2.3,1.6-4.1,3.9-4.1s3.9,1.9,3.9,4.1h0c0,2.3-1.6,4.1-3.9,4.1M250.9,382.2h2v-8.2l6.3,8.2h1.7v-11.5h-2v7.9l-6.2-7.9h-1.9v11.5ZM274.7,382.2h2.1l1.2-2.8h5.4l1.2,2.8h2.1l-5.1-11.6h-1.9l-5.1,11.6ZM278.7,377.6l2-4.6,2,4.6h-4ZM300.5,382.2h8.1v-1.8h-6v-9.7h-2v11.5Z"/>
    <path class="cls-1" d="M32.3,407.7c2.5,0,3.8-1.1,3.8-3.1s-.4-1.6-1-2.3l-.6-.6.5-.6c.5-.6.7-1.3.7-2.1,0-2-1.3-3-3.5-3h-4.1c-.9,0-1.5.5-1.5,1.4v9c0,.9.6,1.4,1.5,1.4h4.1ZM33.3,399.1c0,.4-.1.8-.4,1.2l-.5.6h-3.2v-3.1h2.6c1,0,1.4.5,1.4,1.3M32.5,402.7l.6.6c.3.3.5.7.5,1.2,0,.8-.5,1.3-1.6,1.3h-2.8v-3.1h3.2ZM49.5,407.7l-2.2-5,.7-.9c.6-.7,1-1.5,1-2.4,0-2.2-1.4-3.4-3.6-3.4h-4c-.9,0-1.5.6-1.5,1.4v10.4h2.6v-4.3h2.6l1.8,4.3h2.7ZM46.5,399.4c0,.6-.3,1-.6,1.5l-.5.6h-3v-3.7h2.5c1.1,0,1.6.6,1.6,1.6M63,407.7l-3.6-10.7c-.3-.8-.9-1.2-1.8-1.2s-1.6.4-1.8,1.2l-3.8,10.7h2.6l.7-2.1h4.4l.7,2.1h2.6ZM59.2,403.6h-3.4l1.7-5.2,1.7,5.2ZM69.8,400.6c-.9-.2-1.3-.6-1.3-1.3s.7-1.4,1.7-1.4,2.2.3,3.3.7l1,.4.4-2.2-1-.3c-1.3-.4-2.4-.6-3.8-.6-2.3,0-4.1,1.1-4.1,3.5s1.1,2.8,3.1,3.2l2.1.4c.9.2,1.3.6,1.3,1.3s-.8,1.4-1.7,1.4-2.3-.3-3.4-.7l-1-.3-.4,2.1,1,.3c1.3.4,2.5.6,3.8.6,2.3,0,4.1-1.2,4.1-3.5s-1.1-2.8-3.1-3.2l-2-.4ZM81.1,395.9h-2.6v11.7h2.6v-11.7ZM93,407.7v-2.1h-5.3v-9.6h-2.6v10.4c0,.9.6,1.4,1.5,1.4h6.4ZM205,403.5c0,1.5-.8,2.3-2.3,2.3s-2.3-.8-2.3-2.3v-7.5h-2.6v7.4c0,2.8,1.7,4.5,4.9,4.5s4.9-1.7,4.9-4.5v-7.4h-2.6v7.5ZM215.1,400.6c-.9-.2-1.3-.6-1.3-1.3s.7-1.4,1.7-1.4,2.2.3,3.3.7l1,.4.4-2.2-1-.3c-1.3-.4-2.4-.6-3.8-.6-2.3,0-4.1,1.1-4.1,3.5s1.1,2.8,3.1,3.2l2.1.4c.9.2,1.3.6,1.3,1.3s-.8,1.4-1.7,1.4-2.3-.3-3.4-.7l-1-.3-.4,2.1,1,.3c1.3.4,2.5.6,3.8.6,2.3,0,4.1-1.2,4.1-3.5s-1.1-2.8-3.1-3.2l-2-.4ZM234,407.7l-3.6-10.7c-.3-.8-.9-1.2-1.8-1.2s-1.6.4-1.8,1.2l-3.8,10.7h2.6l.7-2.1h4.4l.7,2.1h2.6ZM230.2,403.6h-3.4l1.7-5.2,1.7,5.2ZM254.6,395.9h-2.6v8.2c0,1-.4,1.5-1.3,1.5s-1-.1-1.7-.3l-.3,2c.9.3,1.7.4,2.4.4,2.1,0,3.4-1.2,3.4-3.3v-8.4ZM268.7,407.7l-3.6-10.7c-.3-.8-.9-1.2-1.8-1.2s-1.6.4-1.8,1.2l-3.8,10.7h2.6l.7-2.1h4.4l.7,2.1h2.6ZM264.9,403.6h-3.4l1.7-5.2,1.7,5.2ZM280.7,399.7c0-2.3-1.5-3.8-3.8-3.8h-3.5c-.9,0-1.5.5-1.5,1.4v10.3h2.5v-4.2h2.3c2.4,0,4-1.4,4-3.8M278.4,399.7c0,1.2-.7,1.9-1.8,1.9h-2.1v-3.7h1.8c1.3,0,2.2.4,2.2,1.9M294.5,407.7l-3.6-10.7c-.3-.8-.9-1.2-1.8-1.2s-1.6.4-1.8,1.2l-3.8,10.7h2.6l.7-2.1h4.4l.7,2.1h2.6ZM290.7,403.6h-3.4l1.7-5.2,1.7,5.2ZM290.3,395.3c.9,0,1.8-.5,2.3-1.8l-1.2-.7c-.3.7-.6,1-1,1s-.4,0-.6-.2l-.6-.4c-.4-.3-.8-.4-1.3-.4-.9,0-1.8.5-2.3,1.9l1.1.7c.3-.8.7-1,1-1s.4,0,.6.2l.6.4c.4.3.8.4,1.3.4M308.3,401.8c0-3.8-2.3-6-5.6-6s-5.7,2.2-5.7,6,2.3,6,5.6,6,5.7-2.1,5.7-6M305.7,401.8c0,2.6-1.1,4.1-3,4.1s-3.1-1.5-3.1-4.1,1.1-4.1,3-4.1,3.1,1.5,3.1,4.1"/>
    <path class="cls-1" d="M102.4,400.3c0,.7-.6,1.3-1.3,1.3s-1.3-.6-1.3-1.3.6-1.3,1.3-1.3,1.3.6,1.3,1.3"/>
    <path class="cls-1" d="M191.2,400.3c0,.7-.6,1.3-1.3,1.3s-1.3-.6-1.3-1.3.6-1.3,1.3-1.3,1.3.6,1.3,1.3"/>
    <path class="cls-1" d="M243,400.3c0,.7-.6,1.3-1.3,1.3s-1.3-.6-1.3-1.3.6-1.3,1.3-1.3,1.3.6,1.3,1.3"/>
    <path class="cls-1" d="M117.7,407.7h-6.9c-.5,0-.8-.1-1.1-.4-.3-.2-.4-.6-.4-1v-9c0-.4.1-.8.4-1,.3-.2.6-.4,1.1-.4h6.8v2h-5.7v2.9h5v1.9h-5v3.1h5.8v1.9Z"/>
    <path class="cls-1" d="M129,403.4v-7.6h2.6v7.5c0,1.4-.4,2.5-1.3,3.3-.9.8-2.1,1.2-3.6,1.2s-2.8-.4-3.6-1.2c-.8-.8-1.3-1.9-1.3-3.3v-7.5h2.6v7.6c0,1.5.8,2.3,2.3,2.3s2.3-.8,2.3-2.3"/>
    <path class="cls-1" d="M141.4,399.3c0-1.1-.5-1.6-1.6-1.6h-2.6v3.7h3.1l.5-.6c.4-.5.6-1,.6-1.5M144.4,407.7h-2.7l-1.9-4.4h-2.6v4.4h-2.6v-10.4c0-.4.1-.7.4-1,.3-.3.6-.4,1.1-.4h4.1c1.2,0,2.1.3,2.7.9.6.6,1,1.4,1,2.5s-.3,1.7-1,2.4l-.7.9,2.3,5.1Z"/>
    <path class="cls-1" d="M155.3,401.8c0-1.3-.3-2.3-.8-3-.6-.7-1.3-1.1-2.3-1.1s-1.7.4-2.3,1.1c-.5.7-.8,1.7-.8,3s.3,2.3.8,3c.5.7,1.3,1.1,2.3,1.1s1.7-.4,2.3-1.1c.5-.7.8-1.7.8-3.1M157.9,401.8c0,1.9-.5,3.4-1.6,4.4-1,1-2.4,1.6-4.2,1.6s-3.1-.5-4.2-1.6c-1-1.1-1.5-2.5-1.5-4.4s.5-3.4,1.6-4.4c1.1-1.1,2.4-1.6,4.2-1.6s3.1.5,4.1,1.6c1,1.1,1.5,2.5,1.5,4.4"/>
    <path class="cls-1" d="M167.3,399.6c0-1.3-.7-1.9-2.2-1.9h-1.8v3.7h2.1c.6,0,1-.2,1.4-.5.3-.3.5-.8.5-1.4M169.6,399.6c0,1.2-.4,2.1-1.1,2.8-.7.7-1.7,1-2.9,1h-2.4v4.2h-2.5v-10.4c0-.4.1-.8.4-1,.3-.2.6-.4,1.1-.4h3.6c1.2,0,2.1.3,2.8,1,.7.7,1.1,1.6,1.1,2.8"/>
    <path class="cls-1" d="M177.7,403.6l-1.7-5.3-1.7,5.3h3.4ZM181.6,407.7h-2.4l-.7-2.2h-4.6l-.7,2.2h-2.6l3.6-10.8c.3-.8.9-1.1,1.9-1.1s1.6.4,1.9,1.2l3.7,10.8Z"/>
    <g>
      <path class="cls-2" d="M25.9,419.5h2.9l1.3,9.8,1.6-9.8h2.6l1.5,9.8,1.4-9.8h2.8l-2.4,15h-3l-1.7-9.5-1.7,9.5h-3.1l-2.3-15Z"/>
      <path class="cls-2" d="M42.3,419.5h2.9l1.3,9.8,1.6-9.8h2.6l1.5,9.8,1.4-9.8h2.8l-2.4,15h-3l-1.7-9.5-1.7,9.5h-3.1l-2.3-15Z"/>
      <path class="cls-2" d="M58.6,419.5h2.9l1.3,9.8,1.6-9.8h2.6l1.5,9.8,1.4-9.8h2.8l-2.4,15h-3l-1.7-9.5-1.7,9.5h-3.1l-2.3-15Z"/>
      <path class="cls-2" d="M75.6,431h3.4v3.6h-3.4v-3.6Z"/>
      <path class="cls-2" d="M82.6,413.5h3.5v21.1h-3.5v-21.1Z"/>
      <path class="cls-2" d="M90,414.2h3.5v2.9h-3.5v-2.9ZM90,419.5h3.5v15h-3.5v-15Z"/>
      <path class="cls-2" d="M97.9,430.8v-9h-1.5v-2.3h1.5v-4.5h3.6v4.5h2.3v2.3h-2.3v8.7c0,1,.4,1.4,1.4,1.4s.8,0,1.1-.1v2.7c-.6.1-1.4.2-2.3.2-2.9,0-3.7-1.5-3.7-3.9Z"/>
      <path class="cls-2" d="M106.6,429.3v-4.5c0-3.6,1.5-5.5,4.8-5.5s4.7,2.1,4.7,5.7v2.2h-6v3c0,1.5.4,2.1,1.4,2.1s1.3-.6,1.3-2v-1.3h3.3v1c0,3-1.5,4.7-4.6,4.7s-4.8-2-4.8-5.5ZM112.7,425.4v-1.4c0-1.5-.3-2.2-1.3-2.2s-1.3.6-1.3,2.6v1h2.6Z"/>
      <path class="cls-2" d="M119.5,419.5h3.5v2.3c1-1.8,2-2.5,3.3-2.5s.3,0,.5,0v3.7c-.4-.2-.9-.3-1.5-.3-.9,0-1.7.4-2.4,1.5v10.3h-3.5v-15Z"/>
      <path class="cls-2" d="M129.2,431.2c0-3.7,3-4.9,6.1-6v-1.3c0-1.3-.2-2-1.2-2s-1.2.7-1.2,1.7v.9c0,0-3.4-.1-3.4-.1.1-3.5,1.7-5.1,4.9-5.1s4.3,1.8,4.3,4.6v6.9c0,1.7.2,2.9.3,3.7h-3.2c-.1-.7-.3-1.7-.4-2.2-.4,1.2-1.3,2.4-3,2.4s-3.2-1.8-3.2-3.6ZM135.2,431.2v-4.2c-1.6.9-2.7,1.8-2.7,3.4s.4,1.8,1.2,1.8,1.2-.6,1.5-1Z"/>
      <path class="cls-2" d="M142.3,419.5h3.5v2.3c1-1.8,2-2.5,3.3-2.5s.3,0,.5,0v3.7c-.4-.2-.9-.3-1.5-.3-.9,0-1.7.4-2.4,1.5v10.3h-3.5v-15Z"/>
      <path class="cls-2" d="M152.1,429.3v-4.5c0-3.6,1.5-5.5,4.8-5.5s4.7,2.1,4.7,5.7v2.2h-6v3c0,1.5.4,2.1,1.4,2.1s1.3-.6,1.3-2v-1.3h3.3v1c0,3-1.5,4.7-4.6,4.7s-4.8-2-4.8-5.5ZM158.2,425.4v-1.4c0-1.5-.3-2.2-1.3-2.2s-1.3.6-1.3,2.6v1h2.6Z"/>
      <path class="cls-2" d="M168.5,433.4v1.1h-3.5v-21.1h3.5v7.2c.9-.8,1.9-1.4,3.1-1.4,2.7,0,3.3,2.9,3.3,5v5.1c0,3-1,5.4-3.5,5.4s-2.1-.6-2.9-1.4ZM171.3,429.5v-5.4c0-1.4-.2-2.5-1.3-2.5s-1.1.3-1.6.6v9.5c.4.3,1,.5,1.6.5,1.1,0,1.3-1.2,1.3-2.8Z"/>
      <path class="cls-2" d="M178,429.5v-5c0-3.3,1.5-5.2,4.8-5.2s4.8,1.9,4.8,5.2v5c0,3.3-1.6,5.2-4.8,5.2s-4.8-1.9-4.8-5.2ZM184.2,429.8v-5.5c0-1.4-.1-2.5-1.3-2.5s-1.4,1.1-1.4,2.5v5.5c0,1.4.1,2.5,1.4,2.5s1.3-1.1,1.3-2.5Z"/>
      <path class="cls-2" d="M190.8,429.5v-5c0-3.3,1.5-5.2,4.8-5.2s4.8,1.9,4.8,5.2v5c0,3.3-1.6,5.2-4.8,5.2s-4.8-1.9-4.8-5.2ZM197,429.8v-5.5c0-1.4-.1-2.5-1.3-2.5s-1.4,1.1-1.4,2.5v5.5c0,1.4.1,2.5,1.4,2.5s1.3-1.1,1.3-2.5Z"/>
      <path class="cls-2" d="M203.9,413.4h3.5v12.1l3.8-6.1h3.9l-3.8,6,3.7,9h-3.7l-2.7-7.4-1.2,1.7v5.7h-3.5v-21.1Z"/>
      <path class="cls-2" d="M216.7,430.8l2.6-1c.4,1.6,1.1,2.5,2.2,2.5s1.2-.4,1.2-1.2-.4-1.4-1.7-2.4l-1.8-1.6c-1.4-1.1-2.2-2.2-2.2-4s1.8-3.9,4.3-3.9,3.9,1.6,4.3,3.9l-2.3,1c-.3-1.2-.9-2.4-1.9-2.4s-1.2.5-1.2,1.2.5,1.2,1.5,2l1.8,1.7c1.2,1,2.4,2.2,2.4,4.2s-2,4-4.4,4-4.2-1.4-4.9-4Z"/>
      <path class="cls-2" d="M228.7,431h3.4v3.6h-3.4v-3.6Z"/>
      <path class="cls-2" d="M235.2,429.3v-4.5c0-3.5,1.4-5.5,4.8-5.5s4.6,1.6,4.6,4.6v1.2h-3.3v-1.3c0-1.6-.3-2.1-1.2-2.1s-1.3.6-1.3,2.5v5.5c0,1.9.4,2.4,1.3,2.4s1.2-.7,1.2-2v-1.6h3.3v1.4c0,3-1.4,4.7-4.6,4.7s-4.8-2.1-4.8-5.5Z"/>
      <path class="cls-2" d="M247.6,429.5v-5c0-3.3,1.5-5.2,4.8-5.2s4.8,1.9,4.8,5.2v5c0,3.3-1.6,5.2-4.8,5.2s-4.8-1.9-4.8-5.2ZM253.8,429.8v-5.5c0-1.4-.1-2.5-1.3-2.5s-1.4,1.1-1.4,2.5v5.5c0,1.4.1,2.5,1.4,2.5s1.3-1.1,1.3-2.5Z"/>
      <path class="cls-2" d="M260.7,419.5h3.4v1.3c1.1-1.1,2.3-1.6,3.5-1.6s2.1.5,2.5,1.8c1.1-1.3,2.4-1.8,3.8-1.8s2.8,1.2,2.8,3.5v11.8h-3.4v-11.4c0-1.1-.4-1.5-1.1-1.5s-1.3.3-1.8.9v12h-3.4v-11.4c0-1.1-.4-1.5-1.1-1.5s-1.2.3-1.8.9v12h-3.4v-15Z"/>
      <path class="cls-2" d="M280.2,431h3.4v3.6h-3.4v-3.6Z"/>
      <path class="cls-2" d="M290.5,433.4v1.1h-3.5v-21.1h3.5v7.2c.9-.8,1.9-1.4,3.1-1.4,2.7,0,3.3,2.9,3.3,5v5.1c0,3-1,5.4-3.5,5.4s-2.1-.6-2.9-1.4ZM293.3,429.5v-5.4c0-1.4-.2-2.5-1.3-2.5s-1.1.3-1.6.6v9.5c.4.3,1,.5,1.6.5,1.1,0,1.3-1.2,1.3-2.8Z"/>
      <path class="cls-2" d="M300.3,419.5h3.5v2.3c1-1.8,2-2.5,3.3-2.5s.3,0,.5,0v3.7c-.4-.2-.9-.3-1.5-.3-.9,0-1.7.4-2.4,1.5v10.3h-3.5v-15Z"/>
    </g>
  </g>
</svg>